<?xml version="1.0" encoding="utf-8"?>
<!-- Svg Vector Icons : http://www.onlinewebfonts.com/icon -->
<!DOCTYPE svg PUBLIC "-//W3C//DTD SVG 1.1//EN" "http://www.w3.org/Graphics/SVG/1.1/DTD/svg11.dtd">
<svg version="1.1" xmlns="http://www.w3.org/2000/svg" xmlns:xlink="http://www.w3.org/1999/xlink" x="0px" y="0px" viewBox="0 0 1000 1000" enable-background="new 0 0 1000 1000" xml:space="preserve">
<g><g transform="translate(0.000000,511.000000) scale(0.100000,-0.100000)"><path d="M6227.8,4688.4l-312.7-312.7v-468c0-426.2-21.9-736.8-246.9-3433.3c-137.4-1631-254.9-2971.3-264.9-2977.2c-8-7.9-65.7-25.9-125.5-39.8c-195.2-45.8-631.3-197.1-888.2-310.6c-290.8-125.5-613.4-298.7-890.2-479.9c-107.5-69.7-201.1-127.5-211.1-127.5s-87.6,31.9-171.3,71.7c-199.1,89.6-358.5,127.5-549.6,127.5c-225,0-364.4-31.9-597.4-141.4c-276.8-125.5-402.3-157.3-635.3-157.3c-239,0-378.4,33.8-617.4,147.4c-203.1,95.6-394.3,151.3-531.7,151.3H100v-147.4v-145.4l171.3-21.9c117.5-15.9,223-45.8,334.6-95.6c326.6-145.4,388.3-167.3,541.7-189.2c276.8-37.9,487.9,0,804.6,147.3c246.9,115.5,364.4,141.4,607.4,139.4c250.9-2,342.5-23.9,605.4-145.4c282.8-129.5,352.5-145.4,609.4-145.4c256.9,0,326.6,15.9,607.4,145.4c264.9,121.5,382.4,149.4,617.4,147.4c239,0,354.5-27.9,617.4-147.4c280.8-129.5,350.5-145.4,607.4-145.4c258.9,0,326.6,15.9,615.4,149.4c260.9,119.5,468,163.3,691,145.4c203.1-15.9,308.7-45.8,545.7-155.3c235-107.5,308.7-127.5,507.8-143.4c223-17.9,436.1,25.9,693,147.4c233,107.5,308.7,131.4,497.9,151.3l125.5,13.9l-6,203.1l-6,201.1l-322.6,161.3c-458,231-928,396.3-1469.7,519.8l-159.3,35.8l-243,2917.5c-223,2668.6-243,2959.3-244.9,3405.4v487.9l-314.6,314.6l-312.7,312.7h-139.4h-139.4L6227.8,4688.4z M6871,4535.1l147.4-149.4h-336.6h-336.6l147.4,149.4c87.6,89.6,165.3,149.4,189.2,149.4S6783.4,4624.7,6871,4535.1z M6532.4,3778.3v-308.7h-159.3h-159.3v294.7c0,163.3,6,302.7,13.9,308.7c6,8,77.6,13.9,159.3,13.9h145.4V3778.3z M7149.8,3778.3v-308.7h-159.3h-159.3v308.7V4087h159.3h159.3V3778.3z M6910.8,3155c0-8-175.3-189.2-388.3-402.3c-213.1-213.1-388.3-376.4-388.3-364.4c0,61.7,61.7,736.8,69.7,758.7c6,17.9,95.6,23.9,358.5,23.9C6753.5,3170.9,6910.8,3165,6910.8,3155z M7249.4,2143.3l67.7-826.5L6630,629.8C6253.6,253.4,5943-43.3,5939-29.4c-2,13.9,29.9,454.1,75.7,979.8l79.7,955.9l531.7,531.7c292.8,294.7,537.7,533.7,543.7,533.7S7211.5,2599.4,7249.4,2143.3z M7420.6,98.1l53.8-675.1l-854.3-854.3c-470-470-858.3-854.4-864.3-854.4c-6,0,21.9,396.3,61.7,878.2l73.7,880.2l722.9,722.9L7339,920.6l13.9-73.7C7360.9,805.1,7390.8,468.5,7420.6,98.1z M7568-1680.3c31.9-380.4,53.8-697,49.8-701c-4-4-131.4,4-282.8,17.9c-262.9,21.9-1011.7,13.9-1180.9-13.9c-63.7-10-2,55.8,637.3,697c388.3,388.3,707,705,711,701C7506.3-981.3,7534.1-1297.9,7568-1680.3z M7251.3-2664.1c762.7-59.7,1555.4-276.8,2196.6-601.4l79.7-39.8l-109.5-45.8c-59.7-23.9-155.3-67.7-211.1-95.6c-149.4-75.7-324.6-113.5-543.7-113.5c-233,0-358.5,31.9-635.3,157.3c-418.2,195.2-770.7,191.2-1190.9-8c-250.9-119.5-378.4-149.4-617.4-149.4c-237,0-354.5,27.9-613.4,149.4c-432.1,201.1-784.6,201.1-1210.8,2c-237-113.5-380.4-151.3-551.6-151.3l-129.4,2l109.5,69.7c175.2,111.5,637.3,340.5,880.2,436.1C5516.8-2735.7,6411-2600.3,7251.3-2664.1z"/><path d="M100-4324.9v-149.4l95.6-11.9c207.1-25.9,320.6-57.8,521.8-149.4c282.8-129.5,352.5-147.4,607.4-147.4c248.9,0,354.5,25.9,623.3,149.4c252.9,115.5,364.4,143.4,591.5,143.4c248.9,2,362.5-25.9,627.3-145.4c282.8-129.5,352.5-147.4,607.4-147.4c241,0,374.4,29.9,571.6,129.5c243,123.5,404.3,163.3,653.2,163.3c248.9,0,410.2-39.8,653.2-163.3c197.2-99.6,330.6-129.5,571.6-129.5c254.9,0,324.6,17.9,607.4,147.4c264.9,119.5,378.4,147.4,627.3,145.4c231,0,338.5-25.9,607.4-151.3c250.9-115.5,366.4-143.4,617.4-141.4c247,2,318.6,17.9,597.4,147.4c201.1,91.6,314.6,123.5,523.8,149.4l93.6,11.9v149.4v147.4h-73.7c-139.4,0-336.5-55.8-535.7-149.4c-260.9-121.5-374.4-149.4-615.4-149.4c-235,0-378.4,31.9-587.5,131.4c-239,115.5-356.5,149.4-549.6,161.3c-250.9,15.9-414.2-17.9-673.1-135.4c-282.8-129.4-396.3-157.3-639.2-157.3c-233,0-368.4,29.9-583.5,131.4c-248.9,117.5-362.5,149.4-553.6,161.3c-248.9,15.9-410.3-17.9-667.2-135.4c-282.8-129.4-400.3-157.3-645.2-157.3s-366.4,29.9-645.2,159.3c-252.9,115.5-416.2,149.4-667.1,133.4c-193.2-12-310.7-45.8-549.6-161.3c-209.1-99.6-352.5-131.4-587.5-131.4c-241,0-354.5,27.9-615.4,149.4c-199.1,93.6-396.3,149.4-533.7,149.4H100V-4324.9z"/></g></g>
</svg>